<svg width="18" height="18" viewBox="0 0 18 18" fill="none" xmlns="http://www.w3.org/2000/svg">
<path d="M5.88953 12.7327L6.85872 11.7635C7.42853 12.0318 8.07822 12.1843 8.88935 12.1843C11.1388 12.1843 12.954 10.7285 12.954 8.80813V5.66713L16.1642 2.45582C16.3863 2.23813 16.3886 1.88151 16.1715 1.66044C16.0629 1.54963 15.9127 1.48888 15.7575 1.49226C15.6118 1.49676 15.4734 1.55807 15.3716 1.66269L12.954 4.07976V3.93801C12.954 2.01763 11.1388 0.568631 8.88991 0.567506C6.64047 0.565819 4.82528 2.01707 4.82528 3.93744V8.80757C4.82528 9.72445 5.24041 10.5328 5.90416 11.1301L4.9496 12.0847C4.71953 11.8749 4.51928 11.6527 4.37303 11.4159C4.27516 11.2511 4.10078 11.1464 3.87916 11.1408C3.53997 11.1622 3.30541 11.4305 3.32678 11.7404C3.33297 11.8349 3.36222 11.9266 3.41341 12.0059C3.61253 12.3277 3.8651 12.6185 4.14916 12.8857L1.84853 15.1863C1.62016 15.3973 1.60497 15.7528 1.81591 15.9811C2.02628 16.2095 2.38235 16.2241 2.61072 16.0132C3.42353 15.1998 4.24366 14.3797 5.05985 13.5635C5.97503 14.1074 7.10172 14.4427 8.32966 14.4984V16.3068C7.72216 16.3068 7.1006 16.3068 6.49816 16.3068C6.18766 16.3299 5.95478 16.5999 5.97785 16.9104C5.99978 17.2113 6.2546 17.4408 6.5561 17.4318H11.2277C11.5387 17.4386 11.7958 17.1922 11.802 16.8811C11.8093 16.5701 11.5623 16.313 11.2518 16.3068H9.4496V14.4888C11.5151 14.3459 13.2898 13.4285 14.1673 12.0138C14.3355 11.7528 14.2601 11.4046 13.9985 11.2364C13.7375 11.0683 13.3893 11.1436 13.2161 11.4131C12.5282 12.5212 10.8722 13.3931 8.79091 13.3931C7.62766 13.3936 6.66522 13.1366 5.88953 12.7327ZM8.88991 1.69082C10.6365 1.69082 11.8301 2.74157 11.8301 3.93744V5.20419L6.70066 10.3336C6.2321 9.92526 5.95028 9.38413 5.95028 8.80757V3.93744C5.94972 2.74213 7.14278 1.69082 8.88991 1.69082ZM7.72497 10.8978L11.8295 6.79213V8.80813C11.8295 10.004 10.6365 11.0593 8.88935 11.0593C8.38928 11.0593 8.04278 10.9974 7.72497 10.8978Z" fill="#EDEDED"/>
</svg>
