<svg width="21" height="21" viewBox="0 0 21 21" fill="none" xmlns="http://www.w3.org/2000/svg">
<path d="M10.5 19.6875C15.5659 19.6875 19.6875 15.5659 19.6875 10.5C19.6875 5.43406 15.5659 1.3125 10.5 1.3125C5.43406 1.3125 1.3125 5.43406 1.3125 10.5C1.3125 15.5659 5.43406 19.6875 10.5 19.6875ZM10.5 2.3625C14.987 2.3625 18.6375 6.01302 18.6375 10.5C18.6375 14.987 14.987 18.6375 10.5 18.6375C6.01302 18.6375 2.3625 14.987 2.3625 10.5C2.3625 6.01302 6.01302 2.3625 10.5 2.3625Z" fill="white"/>
<path d="M10.4996 13.3409C9.84196 13.3409 9.30684 12.8202 9.30684 12.1803H8.25684C8.25684 13.2207 8.99086 14.0933 9.97462 14.3272V15.2144H11.0246V14.3272C12.0084 14.0933 12.7424 13.2207 12.7424 12.1803C12.7424 10.9613 11.7362 9.96964 10.4996 9.96964C9.84196 9.96964 9.30684 9.449 9.30684 8.80916C9.30684 8.16918 9.84196 7.64854 10.4996 7.64854C11.1573 7.64854 11.6924 8.16918 11.6924 8.80916H12.7424C12.7424 7.76869 12.0084 6.89611 11.0246 6.66223V5.77502H9.97462V6.66223C8.99086 6.89611 8.25684 7.76869 8.25684 8.80916C8.25684 10.028 9.263 11.0196 10.4996 11.0196C11.1573 11.0196 11.6924 11.5403 11.6924 12.1803C11.6924 12.8202 11.1573 13.3409 10.4996 13.3409Z" fill="white"/>
</svg>
