<svg width="20" height="20" viewBox="0 0 20 20" fill="none" xmlns="http://www.w3.org/2000/svg">
<path fill-rule="evenodd" clip-rule="evenodd" d="M2.50033 3.125C2.38527 3.125 2.29199 3.21827 2.29199 3.33333V14.1667C2.29199 14.2817 2.38526 14.375 2.50033 14.375H10.8337C11.1788 14.375 11.4587 14.6548 11.4587 15C11.4587 15.3452 11.1788 15.625 10.8337 15.625H2.50033C1.69492 15.625 1.04199 14.9721 1.04199 14.1667V3.33333C1.04199 2.52792 1.69491 1.875 2.50033 1.875H17.5003C18.3058 1.875 18.9587 2.52792 18.9587 3.33333V14.1667C18.9587 14.9721 18.3058 15.625 17.5003 15.625H14.167C13.8218 15.625 13.542 15.3452 13.542 15C13.542 14.6548 13.8218 14.375 14.167 14.375H17.5003C17.6154 14.375 17.7087 14.2817 17.7087 14.1667V3.33333C17.7087 3.21827 17.6154 3.125 17.5003 3.125H2.50033Z" fill="white"/>
<path fill-rule="evenodd" clip-rule="evenodd" d="M4.375 5.83337C4.375 5.4882 4.65482 5.20837 5 5.20837H15C15.3452 5.20837 15.625 5.4882 15.625 5.83337C15.625 6.17855 15.3452 6.45837 15 6.45837H5C4.65482 6.45837 4.375 6.17855 4.375 5.83337Z" fill="white"/>
<path fill-rule="evenodd" clip-rule="evenodd" d="M4.375 8.75C4.375 8.40482 4.65482 8.125 5 8.125H7.5C7.84518 8.125 8.125 8.40482 8.125 8.75C8.125 9.09518 7.84518 9.375 7.5 9.375H5C4.65482 9.375 4.375 9.09518 4.375 8.75Z" fill="white"/>
<path fill-rule="evenodd" clip-rule="evenodd" d="M4.375 11.6666C4.375 11.3214 4.65482 11.0416 5 11.0416H6.66667C7.01185 11.0416 7.29167 11.3214 7.29167 11.6666C7.29167 12.0118 7.01185 12.2916 6.66667 12.2916H5C4.65482 12.2916 4.375 12.0118 4.375 11.6666Z" fill="white"/>
<path fill-rule="evenodd" clip-rule="evenodd" d="M9.375 11.25C9.375 9.52411 10.7741 8.125 12.5 8.125C14.2259 8.125 15.625 9.52411 15.625 11.25C15.625 12.9759 14.2259 14.375 12.5 14.375C10.7741 14.375 9.375 12.9759 9.375 11.25ZM12.5 9.375C11.4645 9.375 10.625 10.2145 10.625 11.25C10.625 12.2855 11.4645 13.125 12.5 13.125C13.5355 13.125 14.375 12.2855 14.375 11.25C14.375 10.2145 13.5355 9.375 12.5 9.375Z" fill="white"/>
<path fill-rule="evenodd" clip-rule="evenodd" d="M14.3633 12.5203C14.6189 12.6052 14.7913 12.8442 14.7913 13.1134V17.5C14.7913 17.7166 14.6792 17.9178 14.4949 18.0317C14.3107 18.1456 14.0806 18.1559 13.8868 18.059L12.4997 17.3655L11.1125 18.059C10.9188 18.1559 10.6887 18.1456 10.5044 18.0317C10.3202 17.9178 10.208 17.7166 10.208 17.5V13.125C10.208 12.8568 10.3792 12.6184 10.6334 12.5328C10.8828 12.4487 11.1575 12.53 11.3211 12.7347C11.3243 12.7386 11.3274 12.7427 11.3305 12.7467M11.458 14.2215V16.4888L12.2202 16.1077C12.3961 16.0197 12.6032 16.0197 12.7792 16.1077L13.5413 16.4888V14.2192C13.2524 14.3125 12.9064 14.375 12.4997 14.375C12.0928 14.375 11.7468 14.3134 11.458 14.2215ZM13.6659 12.739L13.6664 12.7384L13.6672 12.7373L13.6687 12.7353L13.6713 12.7319L13.6748 12.7275C13.6762 12.7257 13.6762 12.7259 13.6746 12.7277C13.837 12.5206 14.1125 12.437 14.3633 12.5203M13.6745 12.7278C13.671 12.7318 13.661 12.7428 13.6443 12.7586L13.6745 12.7278ZM13.6443 12.7586C13.6107 12.7903 13.5505 12.841 13.4604 12.8945L13.6443 12.7586ZM13.4604 12.8945C13.2847 12.9989 12.9777 13.125 12.4997 13.125L13.4604 12.8945ZM12.4997 13.125C12.0193 13.125 11.7108 13.0006 11.5346 12.8977L12.4997 13.125ZM11.5346 12.8977C11.4444 12.8451 11.3842 12.7953 11.3509 12.7645L11.5346 12.8977ZM11.3509 12.7645C11.3343 12.749 11.3245 12.7384 11.3211 12.7347L11.3509 12.7645Z" fill="white"/>
</svg>
