<svg width="20" height="20" viewBox="0 0 20 20" fill="none" xmlns="http://www.w3.org/2000/svg">
<path fill-rule="evenodd" clip-rule="evenodd" d="M8.25555 14.3798C8.59806 14.337 8.91043 14.5799 8.95325 14.9224L9.36991 18.2558C9.41273 18.5983 9.16978 18.9106 8.82726 18.9535C8.48475 18.9963 8.17238 18.7533 8.12957 18.4108L7.7129 15.0775C7.67009 14.735 7.91304 14.4226 8.25555 14.3798Z" fill="white"/>
<path fill-rule="evenodd" clip-rule="evenodd" d="M9.94813 4.58637C10.0668 4.45198 10.2374 4.375 10.4167 4.375H18.3333C18.6785 4.375 18.9583 4.65482 18.9583 5V18.3333C18.9583 18.6785 18.6785 18.9583 18.3333 18.9583H8.75001C8.50477 18.9583 8.2822 18.8149 8.18086 18.5916C8.07953 18.3683 8.11816 18.1063 8.27965 17.9218L11.0117 14.7994L9.7965 5.07752C9.77427 4.89964 9.82949 4.72077 9.94813 4.58637ZM11.1247 5.625L12.2869 14.9225C12.309 15.0994 12.2545 15.2774 12.137 15.4116L10.1274 17.7083H17.7083V5.625H11.1247Z" fill="white"/>
<path fill-rule="evenodd" clip-rule="evenodd" d="M10.625 11.6666C10.625 11.3214 10.9048 11.0416 11.25 11.0416H14.5833C14.9285 11.0416 15.2083 11.3214 15.2083 11.6666C15.2083 12.0118 14.9285 12.2916 14.5833 12.2916H11.25C10.9048 12.2916 10.625 12.0118 10.625 11.6666Z" fill="white"/>
<path fill-rule="evenodd" clip-rule="evenodd" d="M10.208 8.33337C10.208 7.9882 10.4878 7.70837 10.833 7.70837H14.583C14.9282 7.70837 15.208 7.9882 15.208 8.33337C15.208 8.67855 14.9282 8.95837 14.583 8.95837H10.833C10.4878 8.95837 10.208 8.67855 10.208 8.33337Z" fill="white"/>
<path fill-rule="evenodd" clip-rule="evenodd" d="M1.04199 1.66663C1.04199 1.32145 1.32181 1.04163 1.66699 1.04163H10.0003C10.3155 1.04163 10.5814 1.27634 10.6205 1.5891L12.2872 14.9224C12.3094 15.1003 12.2542 15.2792 12.1355 15.4136C12.0169 15.548 11.8463 15.625 11.667 15.625H1.66699C1.32181 15.625 1.04199 15.3451 1.04199 15V1.66663ZM2.29199 2.29163V14.375H10.959L9.44859 2.29163H2.29199Z" fill="white"/>
<path fill-rule="evenodd" clip-rule="evenodd" d="M3.54199 5C3.54199 4.65482 3.82181 4.375 4.16699 4.375H7.08366C7.42884 4.375 7.70866 4.65482 7.70866 5C7.70866 5.34518 7.42884 5.625 7.08366 5.625H4.16699C3.82181 5.625 3.54199 5.34518 3.54199 5Z" fill="white"/>
<path fill-rule="evenodd" clip-rule="evenodd" d="M3.54199 8.33337C3.54199 7.9882 3.82181 7.70837 4.16699 7.70837H7.50033C7.8455 7.70837 8.12533 7.9882 8.12533 8.33337C8.12533 8.67855 7.8455 8.95837 7.50033 8.95837H4.16699C3.82181 8.95837 3.54199 8.67855 3.54199 8.33337Z" fill="white"/>
<path fill-rule="evenodd" clip-rule="evenodd" d="M3.54199 11.6666C3.54199 11.3214 3.82181 11.0416 4.16699 11.0416H7.91699C8.26217 11.0416 8.54199 11.3214 8.54199 11.6666C8.54199 12.0118 8.26217 12.2916 7.91699 12.2916H4.16699C3.82181 12.2916 3.54199 12.0118 3.54199 11.6666Z" fill="white"/>
</svg>
