<svg width="20" height="20" viewBox="0 0 20 20" fill="none" xmlns="http://www.w3.org/2000/svg">
<path d="M18.7319 10C18.7319 9.73125 18.875 9.37187 19.0137 9.02375C19.2487 8.43437 19.5156 7.76562 19.2881 7.09437C19.0544 6.40437 18.4187 6.01188 17.8587 5.665C17.54 5.46813 17.2119 5.26437 17.0562 5.06C16.8994 4.85375 16.8025 4.50688 16.6994 4.13938C16.5275 3.52375 16.3312 2.82563 15.7306 2.40688C15.1444 1.99938 14.4056 2.03562 13.7525 2.06687C13.3637 2.08562 12.9619 2.10562 12.6912 2.02125C12.4444 1.94437 12.1581 1.72188 11.855 1.48563C11.3375 1.08188 10.7506 0.625 10 0.625C9.24937 0.625 8.6625 1.08188 8.14437 1.48563C7.84187 1.72188 7.55562 1.94437 7.30812 2.02125C7.0375 2.105 6.63562 2.08562 6.24687 2.06687C5.59562 2.03687 4.855 2 4.26875 2.40875C3.66812 2.82625 3.4725 3.525 3.30062 4.14062C3.19687 4.50812 3.1 4.855 2.94312 5.06125C2.78812 5.265 2.45937 5.46812 2.14125 5.66437C1.58125 6.01187 0.945622 6.405 0.711247 7.09437C0.484372 7.76562 0.750622 8.43437 0.985622 9.02375C1.12437 9.37187 1.26812 9.73125 1.26812 10C1.26812 10.2688 1.125 10.6281 0.986247 10.9763C0.751247 11.5656 0.484372 12.2344 0.711872 12.9056C0.945622 13.5956 1.58125 13.9881 2.14125 14.335C2.46 14.5319 2.78812 14.7356 2.94375 14.94C3.10062 15.1462 3.1975 15.4931 3.30062 15.8606C3.4725 16.4763 3.66875 17.1744 4.26937 17.5931C4.85562 18.0006 5.59312 17.9638 6.2475 17.9331C6.63687 17.915 7.03937 17.895 7.30875 17.9788C7.55562 18.0556 7.84187 18.2781 8.145 18.5144C8.6625 18.9181 9.24937 19.375 10 19.375C10.7506 19.375 11.3375 18.9181 11.8556 18.5144C12.1581 18.2781 12.4444 18.0556 12.6919 17.9788C12.9625 17.895 13.3637 17.9138 13.7531 17.9331C14.4044 17.9644 15.1456 18.0006 15.7312 17.5919C16.3319 17.1737 16.5275 16.4756 16.7 15.86C16.8031 15.4925 16.9 15.1456 17.0569 14.9394C17.2119 14.7356 17.5406 14.5325 17.8587 14.3356C18.4187 13.9881 19.0544 13.595 19.2887 12.9056C19.5156 12.2344 19.2494 11.5656 19.0144 10.9763C18.8756 10.6281 18.7319 10.2688 18.7319 10ZM17.8531 11.4388C18.0162 11.8469 18.1837 12.2694 18.1044 12.5038C18.0144 12.7681 17.6006 13.0244 17.2006 13.2719C16.7862 13.5281 16.3569 13.7937 16.0619 14.1819C15.7606 14.5781 15.6262 15.0575 15.4962 15.5219C15.375 15.9556 15.2487 16.4044 15.0162 16.5663C14.78 16.7313 14.2881 16.7075 13.8131 16.6838C13.3169 16.6594 12.8012 16.635 12.32 16.7844C11.8556 16.9287 11.465 17.2338 11.0862 17.5275C10.6931 17.835 10.3212 18.125 10 18.125C9.67875 18.125 9.30687 17.835 8.91312 17.5281C8.535 17.2338 8.14437 16.9294 7.67937 16.785C7.37875 16.6919 7.06562 16.6663 6.75125 16.6663C6.5625 16.6663 6.37375 16.6762 6.18687 16.6844C5.71187 16.7081 5.22 16.7312 4.98375 16.5669C4.75125 16.4044 4.62562 15.9563 4.50375 15.5225C4.37375 15.0588 4.23937 14.5787 3.93812 14.1825C3.6425 13.7944 3.21375 13.5281 2.79875 13.2719C2.39875 13.0244 1.985 12.7675 1.89562 12.5038C1.81625 12.2694 1.98437 11.8469 2.14687 11.4388C2.32062 11.0025 2.51812 10.5081 2.51812 10C2.51812 9.49187 2.32125 8.9975 2.14687 8.56125C1.98375 8.15312 1.81625 7.73063 1.89562 7.49625C1.98562 7.23188 2.39937 6.97563 2.79937 6.72813C3.21375 6.47188 3.64312 6.20625 3.93812 5.81813C4.23937 5.42188 4.37375 4.9425 4.50375 4.47812C4.625 4.04437 4.75062 3.59562 4.98375 3.43375C5.21937 3.26812 5.71062 3.29063 6.18687 3.31625C6.68312 3.34063 7.19875 3.365 7.68 3.21562C8.14437 3.07125 8.535 2.76625 8.91375 2.4725C9.30687 2.165 9.67875 1.875 10 1.875C10.3212 1.875 10.6931 2.165 11.0869 2.47187C11.465 2.76625 11.8556 3.07063 12.3206 3.215C12.8019 3.36438 13.3156 3.33875 13.8137 3.31562C14.2894 3.29125 14.7806 3.26813 15.0169 3.43313C15.2494 3.59563 15.375 4.04375 15.4969 4.4775C15.6269 4.94125 15.7612 5.42125 16.0625 5.8175C16.3581 6.20562 16.7869 6.47188 17.2019 6.72813C17.6019 6.97563 18.0156 7.2325 18.105 7.49625C18.1844 7.73063 18.0162 8.15312 17.8537 8.56125C17.68 8.99687 17.4825 9.49125 17.4825 10C17.4825 10.5088 17.6794 11.0025 17.8531 11.4388Z" fill="white"/>
<path d="M7.5 8.75C8.19036 8.75 8.75 8.19036 8.75 7.5C8.75 6.80964 8.19036 6.25 7.5 6.25C6.80964 6.25 6.25 6.80964 6.25 7.5C6.25 8.19036 6.80964 8.75 7.5 8.75Z" fill="white"/>
<path d="M12.5 13.75C13.1904 13.75 13.75 13.1904 13.75 12.5C13.75 11.8096 13.1904 11.25 12.5 11.25C11.8096 11.25 11.25 11.8096 11.25 12.5C11.25 13.1904 11.8096 13.75 12.5 13.75Z" fill="white"/>
<path d="M12.1967 6.3394C11.8998 6.1619 11.5167 6.25815 11.3392 6.55378L7.58918 12.8038C7.41168 13.1 7.50731 13.4838 7.80356 13.6613C7.90356 13.7213 8.0148 13.75 8.12418 13.75C8.33668 13.75 8.54356 13.6419 8.66043 13.4469L12.4104 7.1969C12.5886 6.90065 12.4923 6.5169 12.1967 6.3394Z" fill="white"/>
</svg>
