<svg width="17" height="15" viewBox="0 0 17 15" fill="none" xmlns="http://www.w3.org/2000/svg">
<path d="M8.94767 7.46239L2.74173 8.40364C2.67038 8.41448 2.60343 8.44223 2.5476 8.4841C2.49177 8.52597 2.44903 8.58047 2.42369 8.64215L0.283911 13.8606C0.0795734 14.3406 0.630791 14.7981 1.13669 14.5671L15.9677 7.81714C16.0702 7.77038 16.1564 7.69858 16.2166 7.60977C16.2768 7.52096 16.3087 7.41864 16.3087 7.31427C16.3087 7.2099 16.2768 7.10758 16.2166 7.01877C16.1564 6.92996 16.0702 6.85816 15.9677 6.8114L1.13669 0.0613936C0.630791 -0.168856 0.0795734 0.288644 0.283911 0.767894L2.42451 5.98639C2.44986 6.04807 2.49259 6.10257 2.54842 6.14444C2.60425 6.18631 2.67121 6.21406 2.74256 6.22489L8.94849 7.16614C8.98721 7.17177 9.02245 7.18977 9.04789 7.21692C9.07333 7.24407 9.08731 7.27859 9.08731 7.31427C9.08731 7.34995 9.07333 7.38447 9.04789 7.41162C9.02245 7.43877 8.98721 7.45677 8.94849 7.46239H8.94767Z" fill="#1B1E5E"/>
</svg>
