<svg width="18" height="16" viewBox="0 0 18 16" fill="none" xmlns="http://www.w3.org/2000/svg">
<path d="M9.76759 0.0524528C10.0219 0.156653 10.1872 0.398639 10.1872 0.666666V15.3333C10.1872 15.6018 10.0213 15.8442 9.76625 15.9481C9.51124 16.052 9.21695 15.997 9.0197 15.8089L5.0021 11.9756H2.63645C1.49914 11.9756 0.577148 11.0801 0.577148 9.97561V5.9903C0.577148 4.88574 1.49914 3.9903 2.63645 3.9903H5.0038L9.02178 0.189133C9.21949 0.0020928 9.5133 -0.0517471 9.76759 0.0524528ZM13.9457 1.41224L14.0646 1.49064L14.1988 1.6034C14.2852 1.67877 14.4043 1.78796 14.5455 1.93026C14.8273 2.21452 15.1988 2.63337 15.5695 3.18169C16.3114 4.27917 17.056 5.90578 17.056 8.00539C17.056 10.1051 16.3112 11.7293 15.5689 12.8244C15.1981 13.3715 14.8265 13.7891 14.5445 14.0724L14.3506 14.2603L14.0942 14.4856L14.0489 14.5217C13.7517 14.7504 13.3189 14.7025 13.0835 14.414C12.8747 14.158 12.8906 13.7991 13.1042 13.5617L13.2816 13.4051C13.3456 13.3495 13.441 13.2627 13.5574 13.1457C13.7907 12.9113 14.106 12.5579 14.4223 12.0913C15.054 11.1592 15.6832 9.78603 15.6832 8.00539C15.6832 6.22462 15.054 4.84857 14.4218 3.91345C14.1582 3.52347 13.8952 3.212 13.6797 2.98276L13.4474 2.74772L13.1943 2.52184C12.8982 2.29242 12.8486 1.87268 13.0846 1.58477C13.2945 1.32874 13.659 1.26269 13.9457 1.41224ZM8.81431 2.24676L5.76183 5.13451C5.63366 5.25578 5.4618 5.32363 5.28287 5.32363H2.63645C2.25734 5.32363 1.95001 5.62211 1.95001 5.9903V9.97561C1.95001 10.3438 2.25734 10.6423 2.63645 10.6423H5.28287C5.46281 10.6423 5.63555 10.7109 5.76392 10.8333L8.81431 13.7439V2.24676ZM12.5739 4.07877L12.7106 4.17175L12.8941 4.3394L12.9683 4.41491C13.1241 4.57815 13.3251 4.81727 13.5242 5.13523C13.9244 5.77461 14.3117 6.72584 14.3117 7.99806C14.3117 9.27023 13.9244 10.2225 13.5245 10.8628C13.3257 11.1812 13.1247 11.4209 12.969 11.5845L12.8296 11.7235L12.7331 11.8102L12.6785 11.8552L12.5914 11.8936C12.4096 11.9643 11.9846 12.0795 11.7138 11.7505C11.5045 11.4962 11.518 11.1387 11.7288 10.9004L11.9134 10.7281L11.9606 10.6797C12.0629 10.5723 12.2058 10.4033 12.3507 10.1713C12.6384 9.71067 12.9388 8.99478 12.9388 7.99806C12.9388 7.0014 12.6384 6.28695 12.3511 5.82786C12.2424 5.6544 12.135 5.51636 12.045 5.41309L11.9142 5.27326L11.8202 5.18659C11.5254 4.9583 11.4769 4.53962 11.7128 4.25165C11.9226 3.99553 12.2871 3.92934 12.5739 4.07877Z" fill="#EDEDED"/>
</svg>
