<svg width="16" height="16" viewBox="0 0 16 16" fill="none" xmlns="http://www.w3.org/2000/svg">
<path d="M15.0678 10.9056L13.6928 9.5306C13.2829 9.12401 12.7296 8.89478 12.1523 8.89233C11.575 8.88987 11.0198 9.11439 10.6065 9.51748C10.386 9.73928 10.095 9.87728 9.78371 9.90774C9.47241 9.93819 9.16023 9.8592 8.90088 9.68435C7.87725 9.0012 6.99788 8.12353 6.31275 7.10123C6.14098 6.83898 6.06484 6.52555 6.09718 6.21373C6.12951 5.90192 6.26833 5.61077 6.49025 5.38935C6.88969 4.97564 7.11131 4.42202 7.10769 3.84696C7.10407 3.27191 6.87549 2.72112 6.47088 2.31248L5.09588 0.937475C4.68422 0.52723 4.12674 0.296875 3.54556 0.296875C2.96439 0.296875 2.40691 0.52723 1.99525 0.937475L1.59963 1.33373C-0.462873 3.39623 -0.308498 7.73248 3.98275 12.0212C6.57025 14.6094 9.17463 15.6931 11.2865 15.6931C11.9082 15.7138 12.5277 15.6106 13.1091 15.3894C13.6905 15.1683 14.222 14.8336 14.6728 14.405L15.069 14.0087C15.48 13.5969 15.7107 13.0387 15.7105 12.4569C15.7102 11.8751 15.4791 11.3171 15.0678 10.9056ZM14.184 13.125L13.7878 13.5212C12.1628 15.1462 8.57588 14.8494 4.86525 11.1381C1.15463 7.42685 0.857127 3.83748 2.48213 2.21248L2.87525 1.81685C3.05226 1.64049 3.29194 1.54146 3.54181 1.54146C3.79169 1.54146 4.03137 1.64049 4.20838 1.81685L5.58338 3.19185C5.75717 3.36651 5.85581 3.60218 5.85826 3.84855C5.86072 4.09493 5.76678 4.33252 5.5965 4.5106C5.17417 4.93562 4.91073 5.49286 4.85031 6.08898C4.7899 6.68509 4.93617 7.28386 5.26463 7.78498C6.04309 8.94992 7.04415 9.94949 8.21025 10.7262C8.70986 11.0547 9.30707 11.2019 9.90211 11.1431C10.4971 11.0842 11.054 10.8231 11.4796 10.4031C11.6574 10.2308 11.8956 10.1351 12.1432 10.1367C12.3907 10.1382 12.6278 10.2368 12.8034 10.4112L14.1784 11.7862C14.267 11.8736 14.3375 11.9776 14.3857 12.0922C14.434 12.2069 14.4591 12.33 14.4597 12.4544C14.4602 12.5789 14.4361 12.7022 14.3888 12.8172C14.3415 12.9323 14.2719 13.0369 14.184 13.125Z" fill="white"/>
</svg>
