<svg width="17" height="15" viewBox="0 0 17 15" fill="none" xmlns="http://www.w3.org/2000/svg">
<path d="M16.9408 0.841618C16.9408 0.519836 16.6685 0.247559 16.3467 0.247559H0.653629C0.331847 0.247559 0.0595703 0.519836 0.0595703 0.841618V14.307C0.0595703 14.3317 0.0595704 14.3565 0.0843229 14.3565C0.0843229 14.3812 0.109075 14.3812 0.109075 14.406C0.109075 14.4307 0.133828 14.4307 0.133828 14.4555C0.133828 14.4802 0.15858 14.4802 0.15858 14.505C0.15858 14.5297 0.183333 14.5297 0.183333 14.5545L0.232838 14.604C0.232838 14.604 0.232838 14.6287 0.25759 14.6287H0.282342C0.331847 14.6783 0.381352 14.703 0.430857 14.7278H0.45561C0.505115 14.7525 0.579372 14.7525 0.628877 14.7525H16.3219C16.3962 14.7525 16.4457 14.7278 16.4952 14.7278H16.52C16.5695 14.703 16.619 14.6783 16.6685 14.6287H16.6932C16.6932 14.6287 16.6932 14.604 16.718 14.604L16.7675 14.5545C16.7922 14.5297 16.7922 14.5297 16.7922 14.505C16.7922 14.4802 16.817 14.4802 16.817 14.4555C16.817 14.4307 16.8417 14.4307 16.8417 14.406C16.8417 14.3812 16.8665 14.3812 16.8665 14.3565C16.8665 14.3317 16.8912 14.307 16.8912 14.307V14.2575V14.1832V0.841618H16.9408ZM1.24769 4.75251L5.3566 7.6238L1.24769 12.5248V4.75251ZM6.32195 8.29211L8.15363 9.55449C8.25264 9.62875 8.3764 9.6535 8.50016 9.6535C8.62392 9.6535 8.74769 9.62875 8.8467 9.55449L10.6784 8.29211L15.0596 13.5644H1.94076L6.32195 8.29211ZM11.6437 7.6238L15.7526 4.75251V12.5248L11.6437 7.6238ZM15.7526 1.43568V3.29211L8.50016 8.36637L1.24769 3.31686V1.43568H15.7526Z" fill="white"/>
</svg>
