<svg width="19" height="19" viewBox="0 0 19 19" fill="none" xmlns="http://www.w3.org/2000/svg">
<path d="M17.8125 0.5H3.1875V18.5H17.8125V0.5Z" stroke="white" stroke-linejoin="round"/>
<path d="M12.2998 8.97998C13.5424 8.97998 14.5498 8.08455 14.5498 6.97998C14.5498 5.87541 13.5424 4.97998 12.2998 4.97998C11.0572 4.97998 10.0498 5.87541 10.0498 6.97998C10.0498 8.08455 11.0572 8.97998 12.2998 8.97998Z" stroke="white" stroke-linejoin="round"/>
<path d="M15.6748 13C15.6748 9 8.9248 9 8.9248 13" stroke="white" stroke-linejoin="round"/>
<path d="M6.5625 0.5V18.5" stroke="white" stroke-miterlimit="10"/>
<path d="M3.1875 13.5H0.9375V15.5H3.1875" stroke="white" stroke-linejoin="round"/>
<path d="M3.1875 8.5H0.9375V10.5H3.1875" stroke="white" stroke-linejoin="round"/>
<path d="M3.1875 3.5H0.9375V5.5H3.1875" stroke="white" stroke-linejoin="round"/>
</svg>
