<svg width="15" height="19" viewBox="0 0 15 19" fill="none" xmlns="http://www.w3.org/2000/svg">
<path d="M10.4335 5.16567C10.4335 5.32895 10.4223 5.49223 10.4019 5.65365C10.4112 5.58871 10.4205 5.52192 10.4279 5.45697C10.3834 5.77983 10.298 6.0934 10.1737 6.39399C10.1978 6.33461 10.2238 6.27524 10.2479 6.21586C10.1236 6.50903 9.96402 6.78364 9.7692 7.03598C9.80816 6.98588 9.84713 6.93578 9.88609 6.88569C9.69312 7.13432 9.46861 7.35883 9.21998 7.5518C9.27007 7.51283 9.32017 7.47387 9.37027 7.43491C9.11793 7.62787 8.84332 7.7893 8.55015 7.91362C8.60953 7.88949 8.6689 7.86352 8.72828 7.8394C8.42769 7.96371 8.11412 8.04907 7.79127 8.0936C7.85621 8.08432 7.923 8.07504 7.98794 8.06762C7.66324 8.1103 7.33668 8.1103 7.01197 8.06762C7.07691 8.0769 7.14371 8.08617 7.20865 8.0936C6.8858 8.04907 6.57222 7.96371 6.27164 7.8394C6.33101 7.86352 6.39039 7.88949 6.44976 7.91362C6.1566 7.7893 5.88199 7.62973 5.62964 7.43491C5.67974 7.47387 5.72984 7.51283 5.77994 7.5518C5.5313 7.35883 5.30679 7.13432 5.11382 6.88569C5.15279 6.93578 5.19175 6.98588 5.23072 7.03598C5.03775 6.78364 4.87632 6.50903 4.75201 6.21586C4.77613 6.27524 4.8021 6.33461 4.82622 6.39399C4.70191 6.0934 4.61656 5.77983 4.57203 5.45697C4.5813 5.52192 4.59058 5.58871 4.598 5.65365C4.55533 5.32895 4.55533 5.00239 4.598 4.67768C4.58872 4.74262 4.57945 4.80942 4.57203 4.87436C4.61656 4.55151 4.70191 4.23793 4.82622 3.93735C4.8021 3.99672 4.77613 4.0561 4.75201 4.11547C4.87632 3.82231 5.03589 3.5477 5.23072 3.29535C5.19175 3.34545 5.15279 3.39555 5.11382 3.44565C5.30679 3.19701 5.5313 2.9725 5.77994 2.77953C5.72984 2.8185 5.67974 2.85746 5.62964 2.89643C5.88199 2.70346 6.1566 2.54203 6.44976 2.41772C6.39039 2.44184 6.33101 2.46781 6.27164 2.49194C6.57222 2.36762 6.8858 2.28227 7.20865 2.23774C7.14371 2.24701 7.07691 2.25629 7.01197 2.26371C7.33668 2.22104 7.66324 2.22104 7.98794 2.26371C7.923 2.25444 7.85621 2.24516 7.79127 2.23774C8.11412 2.28227 8.42769 2.36762 8.72828 2.49194C8.6689 2.46781 8.60953 2.44184 8.55015 2.41772C8.84332 2.54203 9.11793 2.7016 9.37027 2.89643C9.32017 2.85746 9.27007 2.8185 9.21998 2.77953C9.46861 2.9725 9.69312 3.19701 9.88609 3.44565C9.84713 3.39555 9.80816 3.34545 9.7692 3.29535C9.96216 3.5477 10.1236 3.82231 10.2479 4.11547C10.2238 4.0561 10.1978 3.99672 10.1737 3.93735C10.298 4.23793 10.3834 4.55151 10.4279 4.87436C10.4186 4.80942 10.4093 4.74262 10.4019 4.67768C10.4223 4.8391 10.4316 5.00239 10.4335 5.16567C10.4353 5.55346 10.773 5.92641 11.1756 5.90785C11.5764 5.8893 11.9197 5.58129 11.9178 5.16567C11.9141 4.2769 11.6469 3.36772 11.1237 2.64408C10.9827 2.44926 10.8324 2.25815 10.6654 2.08559C10.4965 1.91117 10.311 1.76088 10.118 1.6143C9.76734 1.34711 9.37584 1.15043 8.96021 0.998283C7.28472 0.384122 5.26411 0.931486 4.13042 2.31195C3.97456 2.50121 3.82613 2.69789 3.69995 2.90942C3.57378 3.11908 3.47544 3.34174 3.38452 3.56811C3.21382 3.98744 3.12661 4.43276 3.09136 4.88364C3.02271 5.76684 3.25279 6.68901 3.71294 7.44604C4.1564 8.17709 4.82622 8.80424 5.60923 9.15864C5.83931 9.26254 6.07496 9.35903 6.31988 9.42768C6.56294 9.49448 6.80972 9.53158 7.06021 9.56127C7.51665 9.61508 7.98238 9.57797 8.43326 9.48705C10.1459 9.13823 11.5801 7.66313 11.8455 5.93197C11.8844 5.67963 11.9141 5.42729 11.9141 5.17123C11.916 4.78344 11.5709 4.41049 11.1719 4.42904C10.7711 4.44203 10.4335 4.75004 10.4335 5.16567ZM12.8957 16.7679C12.532 16.7679 12.1683 16.7679 11.8046 16.7679C10.9381 16.7679 10.0735 16.7679 9.20699 16.7679C8.16421 16.7679 7.12144 16.7679 6.07681 16.7679C5.17691 16.7679 4.27701 16.7679 3.37525 16.7679C2.95406 16.7679 2.53286 16.7716 2.11167 16.7679C2.06529 16.7679 2.0189 16.7642 1.97437 16.7586C2.03931 16.7679 2.10611 16.7772 2.17105 16.7846C2.09683 16.7735 2.02632 16.7531 1.95767 16.7252C2.01704 16.7494 2.07642 16.7753 2.13579 16.7995C2.06157 16.7679 1.99292 16.7271 1.92798 16.677C1.97808 16.716 2.02818 16.7549 2.07827 16.7939C2.02261 16.7475 1.97066 16.6974 1.92613 16.6417C1.96509 16.6918 2.00405 16.7419 2.04302 16.792C1.99292 16.7271 1.95396 16.6584 1.92056 16.5842C1.94468 16.6436 1.97066 16.703 1.99478 16.7623C1.96695 16.6937 1.94839 16.6213 1.9354 16.549C1.94468 16.6139 1.95396 16.6807 1.96138 16.7456C1.93169 16.5211 1.9521 16.2836 1.9521 16.0573C1.9521 15.7919 1.9521 15.5285 1.9521 15.2631C1.9521 15.0646 1.96323 14.8679 1.98921 14.6712C1.97993 14.7362 1.97066 14.803 1.96323 14.8679C2.01519 14.4875 2.11538 14.1146 2.26568 13.7602C2.24155 13.8196 2.21558 13.8789 2.19146 13.9383C2.33618 13.6006 2.52173 13.2833 2.74624 12.992C2.70728 13.0421 2.66831 13.0922 2.62935 13.1423C2.85386 12.8547 3.11177 12.595 3.40122 12.3705C3.35113 12.4094 3.30103 12.4484 3.25093 12.4873C3.54224 12.2628 3.85952 12.0773 4.19722 11.9326C4.13785 11.9567 4.07847 11.9827 4.01909 12.0068C4.37349 11.8583 4.74458 11.7563 5.12681 11.7043C5.06187 11.7136 4.99507 11.7229 4.93013 11.7303C5.20474 11.6951 5.47749 11.6932 5.75396 11.6932C6.09351 11.6932 6.43306 11.6932 6.77261 11.6932C7.5649 11.6932 8.35718 11.6932 9.14947 11.6932C9.45562 11.6932 9.75992 11.6914 10.0661 11.7303C10.0011 11.721 9.93433 11.7118 9.86939 11.7043C10.2498 11.7563 10.6227 11.8565 10.9771 12.0068C10.9177 11.9827 10.8584 11.9567 10.799 11.9326C11.1367 12.0773 11.454 12.2628 11.7453 12.4873C11.6952 12.4484 11.6451 12.4094 11.595 12.3705C11.8826 12.595 12.1423 12.8529 12.3669 13.1423C12.3279 13.0922 12.2889 13.0421 12.25 12.992C12.4745 13.2833 12.66 13.6006 12.8047 13.9383C12.7806 13.8789 12.7546 13.8196 12.7305 13.7602C12.879 14.1146 12.981 14.4857 13.033 14.8679C13.0237 14.803 13.0144 14.7362 13.007 14.6712C13.0422 14.9514 13.0441 15.2297 13.0441 15.5118C13.0441 15.8179 13.0441 16.1241 13.0441 16.4302C13.0441 16.536 13.0478 16.6417 13.0348 16.7456C13.0441 16.6807 13.0534 16.6139 13.0608 16.549C13.0497 16.6232 13.0293 16.6937 13.0014 16.7623C13.0255 16.703 13.0515 16.6436 13.0756 16.5842C13.0441 16.6584 13.0033 16.7271 12.9532 16.792C12.9921 16.7419 13.0311 16.6918 13.0701 16.6417C13.0237 16.6974 12.9736 16.7494 12.9179 16.7939C12.968 16.7549 13.0181 16.716 13.0682 16.677C13.0033 16.7271 12.9346 16.7661 12.8604 16.7995C12.9198 16.7753 12.9792 16.7494 13.0385 16.7252C12.9699 16.7531 12.8975 16.7716 12.8252 16.7846C12.8901 16.7753 12.9569 16.7661 13.0218 16.7586C12.981 16.7642 12.9383 16.7661 12.8957 16.7679C12.7045 16.7698 12.5079 16.8496 12.3706 16.985C12.2425 17.113 12.1442 17.3246 12.1535 17.5101C12.172 17.9072 12.48 18.2579 12.8957 18.2523C13.6174 18.2412 14.252 17.7699 14.4635 17.0778C14.547 16.8032 14.5285 16.5081 14.5285 16.2261C14.5285 15.5804 14.5489 14.9403 14.4376 14.3001C14.2743 13.3631 13.803 12.4818 13.1573 11.7897C12.5116 11.0976 11.6432 10.5892 10.7248 10.3628C10.1978 10.233 9.66714 10.2125 9.12906 10.2125C8.57613 10.2125 8.02505 10.2125 7.47212 10.2125C6.92662 10.2125 6.38296 10.2125 5.83746 10.2125C5.28638 10.2125 4.73902 10.2385 4.20279 10.3814C3.29175 10.6226 2.43452 11.1366 1.80181 11.8342C1.16353 12.5374 0.701515 13.4206 0.551222 14.3632C0.451027 14.9959 0.471437 15.6305 0.471437 16.2688C0.471437 16.562 0.454738 16.8681 0.560499 17.1483C0.697804 17.5082 0.91675 17.7921 1.23775 18.0055C1.48823 18.1707 1.80552 18.2504 2.10239 18.2541C2.24712 18.256 2.39185 18.2541 2.53657 18.2541C2.90767 18.2541 3.27691 18.2541 3.648 18.2541C4.17495 18.2541 4.70005 18.2541 5.22701 18.2541C5.83931 18.2541 6.45162 18.2541 7.06392 18.2541C7.69292 18.2541 8.32007 18.2541 8.94908 18.2541C9.52427 18.2541 10.0976 18.2541 10.6728 18.2541C11.1237 18.2541 11.5746 18.2541 12.0236 18.2541C12.2815 18.2541 12.5394 18.2541 12.7973 18.2541C12.8307 18.2541 12.8641 18.2541 12.8975 18.2541C13.2853 18.2541 13.6583 17.9127 13.6397 17.512C13.6212 17.1075 13.3131 16.7679 12.8957 16.7679Z" fill="white"/>
</svg>
